<svg width="46" height="40" viewBox="0 0 46 40" fill="none" xmlns="http://www.w3.org/2000/svg">
<path d="M20 40H44.5462C44.9638 40 45.3173 39.6626 45.3173 39.2289V35.2289C45.3173 35.0201 45.2369 34.8273 45.0924 34.6827C44.9478 34.5382 44.755 34.4578 44.5462 34.4578H40H33.7992C33.9116 34.3454 34.0241 34.249 34.1365 34.1365C37.9116 30.3614 40 25.3333 40 20C40 14.6506 37.9116 9.63855 34.1365 5.86345C30.3614 2.08835 25.3333 0 20 0C14.6506 0 9.63855 2.08835 5.86345 5.86345C2.08835 9.63855 0 14.6667 0 20C0 25.3494 2.08835 30.3614 5.86345 34.1365C9.62249 37.9116 14.6506 40 20 40ZM40.7711 36H43.7751V38.4578H40.7711V36ZM34.0562 36H39.2289V38.4578H34.0562V36ZM19.2289 38.4418C16.4337 38.3293 13.7831 37.5904 11.4378 36.3534L12.6586 34.2329C14.6827 35.2771 16.8996 35.8715 19.2289 35.9839V38.4418ZM32.5301 38.4578H27.7108C29.2369 37.8313 30.6667 36.996 32 36H32.5301V38.4578ZM20.755 38.4418V35.9839C23.0683 35.8715 25.3012 35.2771 27.3253 34.2329L28.5462 36.3534C26.2008 37.5904 23.5663 38.3293 20.755 38.4418ZM29.8795 35.5823L28.6586 33.4618C29.6064 32.8514 30.506 32.1285 31.3092 31.3092C32.1285 30.49 32.8514 29.6064 33.4618 28.6586L35.5823 29.8795C34.1205 32.1767 32.1767 34.1205 29.8795 35.5823ZM36.3534 28.5462L34.2329 27.3253C35.2771 25.3012 35.8715 23.0843 35.9839 20.755H38.4418C38.3293 23.5663 37.5904 26.2008 36.3534 28.5462ZM38.4418 19.2289H35.9839C35.8715 16.9157 35.2771 14.6827 34.2329 12.6586L36.3534 11.4377C37.5904 13.7831 38.3293 16.4177 38.4418 19.2289ZM29.8795 4.40161C32.1767 5.86345 34.1205 7.80723 35.5823 10.1044L33.4618 11.3253C32.8514 10.3775 32.1285 9.47791 31.3092 8.6747C30.49 7.85542 29.6064 7.13253 28.6586 6.52209L29.8795 4.40161ZM20.755 1.54217C23.5502 1.65462 26.2008 2.39357 28.5462 3.63052L27.3253 5.751C25.3012 4.70683 23.0843 4.11245 20.755 4V1.54217ZM34.4578 19.9839C34.4578 27.9679 27.9679 34.4578 19.9839 34.4578C12 34.4578 5.51004 27.9679 5.51004 19.9839C5.51004 12 12 5.51004 19.9839 5.51004C27.9679 5.5261 34.4578 12.0161 34.4578 19.9839ZM19.2289 1.54217V4C16.9157 4.11245 14.6827 4.70683 12.6586 5.751L11.4378 3.63052C13.7831 2.39357 16.4177 1.65462 19.2289 1.54217ZM10.1044 4.40161L11.3253 6.52209C10.3775 7.13253 9.47791 7.85542 8.6747 8.6747C7.85542 9.49397 7.13253 10.3775 6.52208 11.3253L4.40161 10.1044C5.86346 7.80723 7.80723 5.86345 10.1044 4.40161ZM3.63052 11.4377L5.751 12.6586C4.70682 14.6827 4.11245 16.8996 4 19.2289H1.54216C1.65461 16.4177 2.40963 13.7831 3.63052 11.4377ZM1.54216 20.755H4C4.11245 23.0683 4.70682 25.3012 5.751 27.3253L3.63052 28.5462C2.40963 26.2008 1.65461 23.5663 1.54216 20.755ZM6.52208 28.6586C7.13253 29.6064 7.85542 30.506 8.6747 31.3092C9.49397 32.1285 10.3775 32.8514 11.3253 33.4618L10.1044 35.5823C7.80723 34.1205 5.86346 32.1767 4.40161 29.8795L6.52208 28.6586Z" fill="#E27614"/>
<path d="M22.9924 19.9825C22.9924 18.3279 21.643 16.9785 19.9884 16.9785C18.3338 16.9785 16.9844 18.3279 16.9844 19.9825C16.9844 21.6372 18.3338 22.9865 19.9884 22.9865C21.643 23.0026 22.9924 21.6532 22.9924 19.9825ZM18.5105 19.9825C18.5105 19.1633 19.1691 18.5046 19.9884 18.5046C20.8077 18.5046 21.4663 19.1633 21.4663 19.9825C21.4663 20.8018 20.8077 21.4604 19.9884 21.4604C19.1691 21.4604 18.5105 20.8018 18.5105 19.9825Z" fill="#E27614"/>
<path d="M19.9962 23.8887C17.5545 23.8887 15.5625 25.8806 15.5625 28.3224C15.5625 30.7642 17.5545 32.7561 19.9962 32.7561C22.438 32.7561 24.43 30.7642 24.43 28.3224C24.43 25.8806 22.438 23.8887 19.9962 23.8887ZM19.9962 31.23C18.3898 31.23 17.0886 29.9288 17.0886 28.3224C17.0886 26.716 18.3898 25.4148 19.9962 25.4148C21.6027 25.4148 22.9039 26.716 22.9039 28.3224C22.9039 29.9288 21.5866 31.23 19.9962 31.23Z" fill="#E27614"/>
<path d="M7.23438 19.9865C7.23438 22.4282 9.22634 24.4202 11.6681 24.4202C14.1099 24.4202 16.1018 22.4282 16.1018 19.9865C16.1018 17.5447 14.1099 15.5527 11.6681 15.5527C9.22634 15.5527 7.23438 17.5447 7.23438 19.9865ZM11.6681 17.0949C13.2745 17.0949 14.5757 18.3961 14.5757 20.0025C14.5757 21.609 13.2745 22.9102 11.6681 22.9102C10.0617 22.9102 8.76048 21.609 8.76048 20.0025C8.76048 18.3961 10.0617 17.0949 11.6681 17.0949Z" fill="#E27614"/>
<path d="M19.9967 16.096C22.4384 16.096 24.4304 14.104 24.4304 11.6623C24.4304 9.22048 22.4384 7.22852 19.9967 7.22852C17.5549 7.22852 15.5469 9.20442 15.5469 11.6623C15.5469 14.104 17.5388 16.096 19.9967 16.096ZM19.9967 8.75462C21.6031 8.75462 22.9043 10.0558 22.9043 11.6623C22.9043 13.2687 21.6031 14.5699 19.9967 14.5699C18.3902 14.5699 17.089 13.2687 17.089 11.6623C17.089 10.0558 18.3902 8.75462 19.9967 8.75462Z" fill="#E27614"/>
<path d="M25.1918 23.1307C26.0272 23.9661 27.1517 24.4319 28.3244 24.4319C30.7661 24.4319 32.7581 22.44 32.7581 19.9982C32.7581 17.5564 30.7661 15.5645 28.3244 15.5645C25.8826 15.5645 23.8906 17.5564 23.8906 19.9982C23.8906 21.1709 24.3565 22.2954 25.1918 23.1307ZM28.3244 17.0906C29.9308 17.0906 31.232 18.3918 31.232 19.9982C31.232 21.6046 29.9308 22.9058 28.3244 22.9058C27.5533 22.9058 26.8143 22.6006 26.2681 22.0544C25.7219 21.5082 25.4167 20.7693 25.4167 19.9982C25.4167 18.3918 26.734 17.0906 28.3244 17.0906Z" fill="#E27614"/>
</svg>
