<svg width="44" height="45" viewBox="0 0 44 45" fill="none" xmlns="http://www.w3.org/2000/svg">
<path d="M22 44.5C9.79688 44.5 0 34.7031 0 22.5C0 10.3828 9.79688 0.5 22 0.5C34.1172 0.5 44 10.3828 44 22.5C44 34.7031 34.1172 44.5 22 44.5ZM19.9375 10.8125V22.5C19.9375 23.1875 20.2812 23.875 20.7969 24.2188L29.0469 29.7188C29.9922 30.4062 31.2812 30.1484 31.9688 29.2031C32.5703 28.2578 32.3125 26.9688 31.3672 26.2812L24.0625 21.4688V10.8125C24.0625 9.69531 23.1172 8.75 22 8.75C20.7969 8.75 19.9375 9.69531 19.9375 10.8125Z" fill="#E27614"/>
</svg>
