<svg width="45" height="45" viewBox="0 0 45 45" fill="none" xmlns="http://www.w3.org/2000/svg">
<path d="M14.0938 2.64844C13.4922 1.01562 11.6875 0.242188 10.0547 0.671875L2.49219 2.73438C1.03125 3.16406 0 4.45312 0 6C0 27.3125 17.1875 44.5 38.5 44.5C40.0469 44.5 41.3359 43.4688 41.7656 42.0078L43.8281 34.4453C44.2578 32.8125 43.4844 31.0078 41.8516 30.4062L33.6016 26.9688C32.2266 26.3672 30.5938 26.7109 29.6484 27.9141L26.125 32.125C20.1094 29.2891 15.2109 24.3906 12.375 18.375L16.5859 14.8516C17.7891 13.9062 18.1328 12.2734 17.5312 10.8984L14.0938 2.64844Z" fill="#E27614"/>
</svg>
