<svg width="20" height="20" viewBox="0 0 20 20" fill="none" xmlns="http://www.w3.org/2000/svg">
<g clip-path="url(#clip0_3197_45)">
<path d="M19.0625 10H2.1875C2.01491 10 1.875 10.1399 1.875 10.3125V19.6875C1.875 19.8601 2.01491 20 2.1875 20H19.0625C19.2351 20 19.375 19.8601 19.375 19.6875V10.3125C19.375 10.1399 19.2351 10 19.0625 10Z" fill="#FFC901"/>
<path d="M19.0625 7.5H5.9375C5.85462 7.5 5.77513 7.53292 5.71653 7.59153C5.65792 7.65013 5.625 7.72962 5.625 7.8125V10.3125C5.625 10.3954 5.65792 10.4749 5.71653 10.5335C5.77513 10.5921 5.85462 10.625 5.9375 10.625H19.375V7.8125C19.375 7.72962 19.3421 7.65013 19.2835 7.59153C19.2249 7.53292 19.1454 7.5 19.0625 7.5Z" fill="#FEF3DF"/>
<path d="M19.1203 7.50625L16.3922 10.625H15.5641L18.2953 7.5H19.0641C19.083 7.50053 19.1018 7.50262 19.1203 7.50625ZM16.6266 7.5L13.8922 10.625H13.0641L15.7984 7.5H16.6266ZM14.1297 7.5L11.3953 10.625H10.5641L13.2984 7.5H14.1297ZM11.6297 7.5L8.89531 10.625H8.06406L10.7984 7.5H11.6297ZM9.12656 7.5L6.39531 10.625H5.93906C5.88828 10.6247 5.83829 10.6124 5.7932 10.589C5.74811 10.5657 5.70921 10.5319 5.67969 10.4906L8.29844 7.5H9.12656Z" fill="#8295B3"/>
<path d="M19.3322 2.56503L18.5 0.208465C18.4863 0.169764 18.4652 0.134134 18.4377 0.103609C18.4103 0.0730842 18.3771 0.0482622 18.3401 0.0305606C18.3031 0.0128591 18.2629 0.00262485 18.2219 0.00044223C18.181 -0.00174039 18.1399 0.00417141 18.1013 0.01784L3.9575 5.01472C3.89652 5.03705 3.8439 5.07761 3.80677 5.13089C3.76965 5.18417 3.74983 5.24759 3.75 5.31253C3.74999 5.37937 3.77141 5.44446 3.81112 5.49823C3.85083 5.552 3.90674 5.59162 3.97063 5.61128L5.39 7.58565C5.41895 7.6259 5.45706 7.65867 5.50119 7.68128C5.54531 7.70388 5.59418 7.71566 5.64375 7.71565C5.67929 7.71555 5.71456 7.70953 5.74813 7.69784L19.1416 2.96346C19.2196 2.93587 19.2836 2.8784 19.3193 2.80369C19.3551 2.72899 19.3597 2.64314 19.3322 2.56503Z" fill="#FEF3DF"/>
<path d="M18.2406 0.00229257L16.7219 3.81792H16.7188L15.9406 4.09292L17.475 0.239793L18.1031 0.0179176C18.1471 0.00180981 18.1942 -0.00354781 18.2406 0.00229257ZM15.9 0.796043L14.3656 4.64917H14.3625L13.5844 4.92729L15.1156 1.07417L15.9 0.796043ZM13.5406 1.63042L12.0062 5.48354L11.225 5.75854L12.7594 1.90542L13.5406 1.63042ZM11.1844 2.46167L9.65312 6.31479H9.65L8.86875 6.59292L10.4031 2.73979L11.1844 2.46167ZM6.47187 4.12729L5.2 7.31792L4.76562 6.71479L5.6875 4.40542L6.47187 4.12729ZM8.83125 3.29292L7.29375 7.14917H7.29063L6.50937 7.42729C6.81719 6.64854 7.46656 5.02761 8.04688 3.57104L8.83125 3.29292Z" fill="#8295B3"/>
<path d="M6.19125 7.63031L4.39438 5.13031C4.36546 5.09001 4.32736 5.05717 4.28324 5.03451C4.23911 5.01185 4.19023 5.00002 4.14062 5H0.9375C0.85462 5 0.775134 5.03292 0.716529 5.09153C0.657924 5.15013 0.625 5.22962 0.625 5.3125V10.3125C0.625 10.3954 0.657924 10.4749 0.716529 10.5335C0.775134 10.5921 0.85462 10.625 0.9375 10.625H6.25V7.8125C6.24996 7.74712 6.22941 7.6834 6.19125 7.63031ZM18.125 19.375H16.5625C16.4796 19.375 16.4001 19.3421 16.3415 19.2835C16.2829 19.2249 16.25 19.1454 16.25 19.0625C16.25 18.9796 16.2829 18.9001 16.3415 18.8415C16.4001 18.7829 16.4796 18.75 16.5625 18.75H17.8125V17.5C17.8125 17.4171 17.8454 17.3376 17.904 17.279C17.9626 17.2204 18.0421 17.1875 18.125 17.1875C18.2079 17.1875 18.2874 17.2204 18.346 17.279C18.4046 17.3376 18.4375 17.4171 18.4375 17.5V19.0625C18.4375 19.1454 18.4046 19.2249 18.346 19.2835C18.2874 19.3421 18.2079 19.375 18.125 19.375ZM3.125 13.4375C3.04212 13.4375 2.96263 13.4046 2.90403 13.346C2.84542 13.2874 2.8125 13.2079 2.8125 13.125V11.5625C2.8125 11.4796 2.84542 11.4001 2.90403 11.3415C2.96263 11.2829 3.04212 11.25 3.125 11.25H4.6875C4.77038 11.25 4.84987 11.2829 4.90847 11.3415C4.96708 11.4001 5 11.4796 5 11.5625C5 11.6454 4.96708 11.7249 4.90847 11.7835C4.84987 11.8421 4.77038 11.875 4.6875 11.875H3.4375V13.125C3.4375 13.2079 3.40458 13.2874 3.34597 13.346C3.28737 13.4046 3.20788 13.4375 3.125 13.4375Z" fill="#E27614"/>
<path d="M10.625 18.4375C12.3509 18.4375 13.75 17.0384 13.75 15.3125C13.75 13.5866 12.3509 12.1875 10.625 12.1875C8.89911 12.1875 7.5 13.5866 7.5 15.3125C7.5 17.0384 8.89911 18.4375 10.625 18.4375Z" fill="#E27614"/>
<path d="M12.0313 15.0419L9.84375 13.7919C9.7962 13.7644 9.74225 13.75 9.68735 13.75C9.63244 13.75 9.57851 13.7645 9.53098 13.792C9.48346 13.8195 9.44402 13.8591 9.41664 13.9067C9.38925 13.9542 9.37489 14.0082 9.375 14.0631V16.5631C9.37489 16.618 9.38925 16.672 9.41664 16.7196C9.44402 16.7672 9.48346 16.8067 9.53098 16.8342C9.57851 16.8617 9.63244 16.8762 9.68735 16.8762C9.74225 16.8763 9.7962 16.8618 9.84375 16.8344L12.0313 15.5844C12.079 15.557 12.1188 15.5175 12.1464 15.4699C12.174 15.4223 12.1886 15.3682 12.1886 15.3131C12.1886 15.2581 12.174 15.204 12.1464 15.1563C12.1188 15.1087 12.079 15.0692 12.0313 15.0419Z" fill="#FEF3DF"/>
</g>
<defs>
<clipPath id="clip0_3197_45">
<rect width="20" height="20" fill="white"/>
</clipPath>
</defs>
</svg>
